<?xml version="1.0" encoding="iso-8859-1"?>
<!-- Uploaded to: SVG Repo, www.svgrepo.com, Generator: SVG Repo Mixer Tools -->
<svg height="800px" width="800px" version="1.1" id="Layer_1" xmlns="http://www.w3.org/2000/svg" xmlns:xlink="http://www.w3.org/1999/xlink" 
	 viewBox="0 0 512 512" xml:space="preserve">
<path style="fill:#A78966;" d="M256.003,232.726c7.967,0,15.748,0.808,23.27,2.341V129.372c-7.058-3.362-14.949-5.25-23.273-5.25
	s-16.215,1.888-23.273,5.25v105.697c7.523-1.533,15.304-2.343,23.273-2.343C256.002,232.726,256.002,232.726,256.003,232.726z"/>
<g>
	<path style="fill:#B3D8F4;" d="M505.177,449.001c-9.09-9.087-23.824-9.086-32.914,0.005
		c-11.404,11.407-16.995,16.451-30.078,16.451c-0.003,0-0.006,0-0.012,0c-13.075,0-18.671-5.046-30.081-16.454
		c-12.688-12.687-30.059-30.056-62.914-30.085c-0.028,0-0.059-0.005-0.088-0.005c-32.915,0-50.306,17.392-63.004,30.092
		c-11.407,11.407-17,16.451-30.079,16.451c-0.002,0-0.005,0-0.006,0c-0.002,0-0.003,0-0.006,0c-13.076,0-18.672-5.046-30.082-16.454
		c-12.687-12.685-30.056-30.053-62.906-30.085c-0.029,0-0.061-0.005-0.092-0.005c-32.915,0-50.306,17.392-63.004,30.092
		c-11.407,11.408-17.001,16.452-30.079,16.452c-0.006,0-0.011,0-0.012,0c-13.078,0-18.674-5.046-30.082-16.455
		c-9.089-9.089-23.822-9.089-32.912-0.002s-9.09,23.822-0.003,32.912C19.518,494.609,36.908,512,69.812,512c0.011,0,0.019,0,0.023,0
		c32.903,0,50.292-17.389,62.99-30.087c11.399-11.399,16.997-16.444,30.048-16.457c0.014,0,0.026,0.002,0.039,0.002
		c13.081,0,18.677,5.044,30.087,16.455c12.699,12.698,30.085,30.085,62.99,30.085c0.006,0,0.008,0,0.011,0c0.003,0,0.008,0,0.011,0
		c32.903,0,50.292-17.389,62.99-30.087c11.399-11.401,16.998-16.446,30.053-16.457c0.014,0,0.028,0.002,0.04,0.002
		c13.079,0,18.676,5.044,30.087,16.455c12.699,12.698,30.085,30.085,62.988,30.085c0.006,0,0.016,0,0.023,0
		c32.905-0.002,50.295-17.391,62.99-30.089C514.267,472.823,514.265,458.086,505.177,449.001z"/>
	<path style="fill:#B3D8F4;" d="M505.177,355.91c-9.09-9.087-23.824-9.086-32.914,0.005c-11.404,11.407-16.995,16.451-30.078,16.451
		c-0.003,0-0.006,0-0.012,0c-13.075,0-18.671-5.046-30.081-16.454c-9.605-9.605-21.903-21.89-41.568-27.307
		c-6.307-1.738-13.368-2.771-21.346-2.779c-0.028,0-0.059-0.005-0.088-0.005c-0.987,0-1.96,0.017-2.918,0.048
		c-25.561,0.818-41.416,12.311-53.098,23.223c-2.501,2.337-4.816,4.648-6.99,6.82c-11.405,11.407-16.998,16.451-30.078,16.451H256
		h-0.006c-13.076,0-18.672-5.046-30.082-16.454c-2.172-2.172-4.487-4.482-6.988-6.819c-11.68-10.91-27.536-22.402-53.096-23.22
		c-0.928-0.031-1.868-0.047-2.822-0.047c-0.029,0-0.061-0.005-0.092-0.005c-8.017,0-15.104,1.038-21.434,2.782
		c-19.667,5.418-31.964,17.703-41.57,27.31c-11.407,11.408-17.001,16.452-30.079,16.452c-0.006,0-0.011,0-0.012,0
		c-13.078,0-18.674-5.046-30.082-16.455c-9.089-9.089-23.822-9.089-32.912-0.002s-9.09,23.822-0.003,32.912
		c12.698,12.699,30.087,30.09,62.992,30.09c0.011,0,0.019,0,0.023,0c32.903,0,50.292-17.389,62.99-30.087
		c11.399-11.399,16.997-16.445,30.048-16.457c0.014,0,0.026,0.002,0.039,0.002c13.081,0,18.677,5.044,30.087,16.455
		c12.699,12.698,30.085,30.085,62.99,30.085c0.006,0,0.008,0,0.011,0c0.003,0,0.008,0,0.011,0c32.903,0,50.292-17.389,62.99-30.087
		c11.399-11.401,16.998-16.446,30.053-16.457c0.014,0,0.028,0.002,0.04,0.002c13.079,0,18.676,5.044,30.087,16.455
		c12.699,12.698,30.085,30.085,62.988,30.085c0.006,0,0.016,0,0.023,0c32.905-0.002,50.295-17.391,62.99-30.089
		C514.267,379.732,514.265,364.995,505.177,355.91z"/>
</g>
<path style="fill:#F2D23D;" d="M279.273,235.067c-7.522-1.533-15.303-2.341-23.27-2.341c-0.002,0-0.002,0-0.003,0
	c-7.969,0-15.749,0.808-23.273,2.343c-46.448,9.467-82.89,46.698-91.248,93.533c6.33-1.744,13.418-2.782,21.434-2.782
	c0.029,0,0.061,0.005,0.092,0.005c0.954,0,1.896,0.017,2.822,0.047c25.56,0.818,41.415,12.31,53.096,23.22
	c2.501,2.337,4.816,4.647,6.988,6.819c11.41,11.408,17.006,16.454,30.082,16.454H256h0.006c13.079,0,18.672-5.044,30.081-16.452
	c2.172-2.172,4.489-4.484,6.99-6.82c11.68-10.912,27.536-22.404,53.097-23.223c0.959-0.031,1.932-0.048,2.918-0.048
	c0.029,0,0.059,0.005,0.088,0.005c7.978,0.008,15.037,1.041,21.346,2.779C362.166,281.764,325.722,244.531,279.273,235.067z"/>
<path style="fill:#A4E276;" d="M382.165,84.392c-21.319-21.321-49.889-31.055-77.849-29.254c8.453-5.427,18.491-8.592,29.26-8.592
	c12.853,0,23.273-10.42,23.273-23.273C356.849,10.418,346.429,0,333.576,0C302.414,0,274.514,14.212,256,36.489
	C237.486,14.212,209.587,0,178.424,0c-12.853,0-23.273,10.418-23.273,23.273c0,12.853,10.42,23.273,23.273,23.273
	c10.769,0,20.807,3.165,29.258,8.592c-27.961-1.801-56.531,7.933-77.849,29.254c-9.089,9.089-9.089,23.824,0,32.912
	c9.087,9.089,23.825,9.089,32.912,0c7.615-7.615,16.952-12.476,26.767-14.612c-21.043,18.496-34.361,45.58-34.361,75.733
	c0,12.853,10.42,23.273,23.273,23.273c12.853,0,23.273-10.42,23.273-23.273c0-21.619,12.701-40.321,31.03-49.053
	c7.058-3.362,14.949-5.25,23.273-5.25s16.215,1.888,23.273,5.25c18.328,8.732,31.03,27.435,31.03,49.053
	c0,12.853,10.42,23.273,23.273,23.273c12.853,0,23.273-10.42,23.273-23.273c0-30.152-13.32-57.237-34.363-75.734
	c9.815,2.138,19.152,6.999,26.767,14.614c9.087,9.089,23.825,9.089,32.912,0C391.255,108.217,391.255,93.48,382.165,84.392z"/>
<path style="fill:#EEBF00;" d="M141.48,328.602c6.33-1.744,13.418-2.782,21.434-2.782c0.029,0,0.061,0.005,0.092,0.005
	c0.954,0,1.896,0.017,2.822,0.047c25.56,0.818,41.415,12.31,53.096,23.22c2.501,2.337,4.816,4.647,6.988,6.819
	c11.41,11.408,17.006,16.454,30.082,16.454H256V232.726c-7.969,0-15.749,0.808-23.273,2.343
	C186.28,244.534,149.838,281.766,141.48,328.602z"/>
<g>
	<path style="fill:#78B9EB;" d="M255.994,465.455c-13.076,0-18.672-5.046-30.082-16.454c-12.687-12.685-30.056-30.053-62.906-30.085
		c-0.029,0-0.061-0.005-0.092-0.005c-32.915,0-50.306,17.392-63.004,30.092c-11.407,11.408-17.001,16.452-30.079,16.452
		c-0.006,0-0.011,0-0.012,0c-13.078,0-18.674-5.046-30.082-16.455c-9.089-9.089-23.822-9.089-32.912-0.002
		s-9.09,23.822-0.003,32.912C19.518,494.609,36.908,512,69.812,512c0.011,0,0.019,0,0.023,0c32.903,0,50.292-17.389,62.99-30.087
		c11.399-11.399,16.997-16.444,30.048-16.457c0.014,0,0.026,0.002,0.039,0.002c13.081,0,18.677,5.044,30.087,16.455
		c12.699,12.698,30.085,30.085,62.99,30.085c0.006,0,0.008,0,0.011,0v-46.545C255.999,465.455,255.997,465.455,255.994,465.455z"/>
	<path style="fill:#78B9EB;" d="M255.994,372.364c-13.076,0-18.672-5.046-30.082-16.454c-2.172-2.172-4.487-4.482-6.988-6.819
		c-11.68-10.91-27.536-22.402-53.096-23.22c-0.928-0.031-1.868-0.047-2.822-0.047c-0.029,0-0.061-0.005-0.092-0.005
		c-8.017,0-15.104,1.038-21.434,2.782c-19.667,5.418-31.964,17.703-41.57,27.31c-11.407,11.408-17.001,16.452-30.079,16.452
		c-0.006,0-0.011,0-0.012,0c-13.078,0-18.674-5.046-30.082-16.455c-9.089-9.089-23.822-9.089-32.912-0.002
		s-9.09,23.822-0.003,32.912c12.698,12.699,30.087,30.09,62.992,30.09c0.011,0,0.019,0,0.023,0c32.903,0,50.292-17.389,62.99-30.087
		c11.399-11.399,16.997-16.445,30.048-16.457c0.014,0,0.026,0.002,0.039,0.002c13.081,0,18.677,5.044,30.087,16.455
		c12.699,12.698,30.085,30.085,62.99,30.085c0.006,0,0.008,0,0.011,0v-46.545h-0.006V372.364z"/>
</g>
<path style="fill:#64C37D;" d="M178.424,0c-12.853,0-23.273,10.418-23.273,23.273c0,12.853,10.42,23.273,23.273,23.273
	c10.769,0,20.807,3.165,29.258,8.592c-27.961-1.801-56.531,7.933-77.849,29.254c-9.089,9.089-9.089,23.824,0,32.912
	c9.087,9.089,23.825,9.089,32.912,0c7.615-7.615,16.952-12.476,26.767-14.612c-21.043,18.496-34.361,45.58-34.361,75.733
	c0,12.853,10.42,23.273,23.273,23.273c12.853,0,23.273-10.42,23.273-23.273c0-21.619,12.701-40.321,31.03-49.053
	c7.058-3.362,14.949-5.25,23.273-5.25V36.489C237.486,14.212,209.587,0,178.424,0z"/>
</svg>