<?xml version="1.0" encoding="UTF-8" standalone="no"?>
<!-- Created with Inkscape (http://www.inkscape.org/) -->

<svg
   version="1.1"
   id="svg3896"
   width="880"
   height="880"
   viewBox="0 0 880 880"
   sodipodi:docname="lone-island-publicdomainvectors.org.svg"
   inkscape:version="1.2 (dc2aedaf03, 2022-05-15)"
   xmlns:inkscape="http://www.inkscape.org/namespaces/inkscape"
   xmlns:sodipodi="http://sodipodi.sourceforge.net/DTD/sodipodi-0.dtd"
   xmlns="http://www.w3.org/2000/svg"
   xmlns:svg="http://www.w3.org/2000/svg">
  <defs
     id="defs3900">
    <clipPath
       clipPathUnits="userSpaceOnUse"
       id="clipPath3914">
      <path
         d="M 0,660 H 660 V 0 H 0 Z"
         id="path3912" />
    </clipPath>
  </defs>
  <sodipodi:namedview
     id="namedview3898"
     pagecolor="#ffffff"
     bordercolor="#000000"
     borderopacity="0.25"
     inkscape:showpageshadow="2"
     inkscape:pageopacity="0.0"
     inkscape:pagecheckerboard="0"
     inkscape:deskcolor="#d1d1d1"
     showgrid="false"
     inkscape:zoom="0.95113636"
     inkscape:cx="402.15054"
     inkscape:cy="440.52569"
     inkscape:window-width="1920"
     inkscape:window-height="1017"
     inkscape:window-x="-8"
     inkscape:window-y="-8"
     inkscape:window-maximized="1"
     inkscape:current-layer="g3904">
    <inkscape:page
       x="0"
       y="0"
       id="page3902"
       width="880"
       height="880" />
  </sodipodi:namedview>
  <g
     id="g3904"
     inkscape:groupmode="layer"
     inkscape:label="Page 1"
     transform="matrix(1.3333333,0,0,-1.3333333,0,880)">
    <path
       d="M 1.436,0.446 H 659.999 V 659.999 H 1.436 Z"
       style="fill:#f2f9fd;fill-opacity:1;fill-rule:nonzero;stroke:none"
       id="path3906" />
    <g
       id="g3908">
      <g
         id="g3910"
         clip-path="url(#clipPath3914)">
        <g
           id="g3916"
           transform="translate(1.436,660.4429)">
          <path
             d="m 0,0 h 659.998 v -277.933 c -39.617,-6.387 -116.183,19.369 -155.413,7.92 -53.756,-15.69 -108.117,-10.267 -161.483,3.644 -115.231,30.039 -89.227,11.914 -190.39,-10.258 -37.336,-8.184 -49.801,11.774 -83.277,22.79 -14.311,4.709 -44.657,6.654 -69.435,1.629 z"
             style="fill:#e1f1fb;fill-opacity:1;fill-rule:evenodd;stroke:none"
             id="path3918" />
        </g>
        <g
           id="g3920"
           transform="translate(1.436,660.4429)">
          <path
             d="m 0,0 h 659.998 v -154.584 c -2.567,0.34 -5.174,0.721 -7.831,1.147 -38.677,6.205 -84.453,15.563 -123.467,2.248 -85.511,-29.186 -76.4,16.7 -125.014,6.913 -26.99,-5.435 -88.002,-22.408 -113.455,-7.912 -26.848,15.287 -78.913,34.995 -108.462,15.426 -31.41,-20.8 -79.034,-24.13 -110.836,-1.972 C 59.244,-130.59 28.881,-126.51 0,-126.788 Z"
             style="fill:#d3eaf9;fill-opacity:1;fill-rule:evenodd;stroke:none"
             id="path3922" />
        </g>
        <g
           id="g3924"
           transform="translate(370.0342,425.2026)">
          <path
             d="m 0,0 c -16.768,-39.204 -21.192,-78.806 -22.296,-118.516 -10.07,3.382 -20.139,6.765 -30.207,10.145 10.011,37.423 24.604,73.668 44.481,108.562 C -5.348,0.128 -2.674,0.064 0,0"
             style="fill:#c07731;fill-opacity:1;fill-rule:evenodd;stroke:none"
             id="path3926" />
        </g>
        <g
           id="g3928"
           transform="translate(368.9336,422.583)">
          <path
             d="m 0,0 c -1.171,-2.828 -2.278,-5.66 -3.325,-8.492 -4.03,2.372 -7.083,1.723 -10.323,-5.225 -3.039,-6.771 -4.498,-11.376 -6.751,-18.335 -3.402,-10.501 -6.989,-15.472 -8.808,-27.098 -0.696,-4.435 -1.121,-8.814 -1.457,-13.288 -0.665,-14.897 9.829,-25.838 7.094,-38.903 -0.29,-1.382 -0.726,-2.473 -1.271,-3.332 l -26.561,8.922 c 10.01,37.423 24.603,73.667 44.48,108.561 l 2.04,-0.048 C -3.172,1.946 -1.527,1.047 0,0"
             style="fill:#a76321;fill-opacity:1;fill-rule:evenodd;stroke:none"
             id="path3930" />
        </g>
        <g
           id="g3932"
           transform="translate(365.8145,424.833)">
          <path
             d="m 0,0 c 1.827,6.806 3.919,12.75 6.25,17.922 l 2.352,0.422 -1.781,0.819 c 2.045,4.357 4.264,8.148 6.642,11.419 l 2.177,-0.038 -1.484,0.97 c 3.548,4.67 7.439,8.232 11.617,10.861 l 1.925,-0.684 0.732,-0.535 -0.811,2.313 c 3.105,1.72 6.357,2.96 9.735,3.785 l 3.418,-1.968 -1.483,2.398 c 7.139,1.397 14.813,1.059 22.83,-0.404 -1.143,-4.929 -3.265,-8.695 -5.963,-11.84 l -6.079,3.468 4.551,-5.128 C 51.044,30.145 46.691,27.314 42.334,24.257 L 37.651,27.681 40.563,23 c -1.141,-0.825 -2.276,-1.674 -3.391,-2.567 -3.236,-2.592 -6.328,-5.516 -9.611,-8.326 l -5.924,4.573 4.596,-5.691 C 22.581,7.96 18.642,5.142 13.976,3.113 L 10.2,7.284 10.534,1.814 C 7.387,0.799 3.911,0.148 0,0"
             style="fill:#9ac421;fill-opacity:1;fill-rule:evenodd;stroke:none"
             id="path3934" />
        </g>
        <g
           id="g3936"
           transform="translate(365.8145,424.833)">
          <path
             d="m 0,0 c 1.827,6.806 3.919,12.75 6.25,17.922 l 2.352,0.422 -1.781,0.819 c 2.045,4.357 4.264,8.148 6.642,11.419 l 2.177,-0.038 -1.484,0.97 c 3.548,4.67 7.439,8.232 11.617,10.861 l 1.925,-0.684 0.732,-0.535 -0.811,2.313 c 3.105,1.72 6.357,2.96 9.735,3.785 l 3.418,-1.968 -1.483,2.398 c 7.139,1.397 14.813,1.059 22.83,-0.404 C 37.118,43.377 16.867,26.361 0,0"
             style="fill:#87b027;fill-opacity:1;fill-rule:evenodd;stroke:none"
             id="path3938" />
        </g>
        <g
           id="g3940"
           transform="translate(366.1914,425.0903)">
          <path
             d="m 0,0 c -1.926,6.779 -4.103,12.691 -6.509,17.828 l -2.357,0.39 1.768,0.844 c -2.107,4.328 -4.38,8.086 -6.805,11.32 l -2.176,-0.069 1.47,0.99 c -3.618,4.62 -7.559,8.126 -11.774,10.694 l -1.916,-0.711 -0.723,-0.546 0.778,2.323 c -3.129,1.675 -6.398,2.869 -9.79,3.645 l -3.39,-2.018 1.449,2.419 c -7.158,1.295 -14.824,0.846 -22.822,-0.733 1.216,-4.911 3.392,-8.647 6.133,-11.751 l 6.03,3.554 -4.477,-5.192 c 3.635,-3.584 8.029,-6.352 12.432,-9.346 l 4.633,3.493 -2.847,-4.724 c 1.154,-0.808 2.304,-1.64 3.43,-2.517 3.274,-2.546 6.406,-5.424 9.73,-8.185 l 5.858,4.657 -4.515,-5.757 c 3.696,-2.975 7.676,-5.737 12.37,-7.698 l 3.716,4.224 -0.256,-5.473 C -7.395,0.692 -3.912,0.089 0,0"
             style="fill:#9ac421;fill-opacity:1;fill-rule:evenodd;stroke:none"
             id="path3942" />
        </g>
        <g
           id="g3944"
           transform="translate(366.1914,425.0903)">
          <path
             d="m 0,0 c -1.926,6.779 -4.103,12.691 -6.509,17.828 l -2.357,0.39 1.768,0.844 c -2.107,4.328 -4.38,8.086 -6.805,11.32 l -2.176,-0.069 1.47,0.99 c -3.618,4.62 -7.559,8.126 -11.774,10.694 l -1.916,-0.711 -0.723,-0.546 0.778,2.323 c -3.129,1.675 -6.398,2.869 -9.79,3.645 l -3.39,-2.018 1.449,2.419 c -7.158,1.295 -14.824,0.846 -22.822,-0.733 C -37.742,42.834 -17.245,26.114 0,0"
             style="fill:#87b027;fill-opacity:1;fill-rule:evenodd;stroke:none"
             id="path3946" />
        </g>
        <g
           id="g3948"
           transform="translate(367.959,427.3071)">
          <path
             d="m 0,0 c -8.855,5.207 -17.105,9.249 -24.812,12.244 l -2.878,-1.965 1.012,2.67 c -6.576,2.44 -12.758,4.114 -18.571,5.082 l -2.224,-2.263 0.552,2.525 c -8.464,1.227 -16.147,0.953 -23.178,-0.583 l -1.301,-2.678 -0.213,-1.304 -1.522,3.232 c -4.986,-1.383 -9.633,-3.418 -13.99,-6.013 l -1.542,-5.54 -0.907,4.007 c -8.85,-5.842 -16.481,-14.036 -23.323,-23.749 6.228,-3.958 12.283,-5.704 18.301,-6.216 l 2.776,9.819 0.508,-9.981 c 7.441,-0.117 14.861,1.388 22.514,2.665 l 1.368,8.344 1.755,-7.844 c 2.03,0.312 4.08,0.589 6.151,0.799 6.016,0.612 12.216,0.731 18.5,1.169 l 1.486,10.808 1.035,-10.614 c 6.895,0.586 13.87,1.679 20.796,4.34 l -0.339,8.193 5.242,-6.029 C -8.492,-6.718 -4.213,-3.844 0,0"
             style="fill:#9ac421;fill-opacity:1;fill-rule:evenodd;stroke:none"
             id="path3950" />
        </g>
        <g
           id="g3952"
           transform="translate(367.959,427.3071)">
          <path
             d="m 0,0 c -8.855,5.207 -17.105,9.249 -24.812,12.244 l -2.878,-1.965 1.012,2.67 c -6.576,2.44 -12.758,4.114 -18.571,5.082 l -2.224,-2.263 0.552,2.525 c -8.464,1.227 -16.147,0.953 -23.178,-0.583 l -1.301,-2.678 -0.213,-1.304 -1.522,3.232 c -4.986,-1.383 -9.633,-3.418 -13.99,-6.013 l -1.542,-5.54 -0.907,4.007 C -98.424,3.572 -106.055,-4.622 -112.897,-14.335 -82.916,7.157 -44.474,10.167 0,0"
             style="fill:#87b027;fill-opacity:1;fill-rule:evenodd;stroke:none"
             id="path3954" />
        </g>
        <g
           id="g3956"
           transform="translate(360.2471,429.7959)">
          <path
             d="m 0,0 c 7.634,0.227 14.455,-0.088 20.55,-0.89 l 1.174,-2.31 0.293,2.102 c 5.16,-0.759 9.787,-1.88 13.922,-3.327 l 0.642,-2.27 0.543,1.843 c 5.955,-2.227 10.865,-5.152 14.898,-8.666 l -0.108,-2.212 -0.327,-0.925 2.146,1.561 c 2.756,-2.683 5.057,-5.671 6.969,-8.922 l -0.976,-4.16 2.025,2.286 c 3.68,-6.97 5.724,-15.039 6.71,-23.818 -5.474,-0.352 -10.045,0.673 -14.151,2.491 l 1.702,7.393 -3.902,-6.324 c -4.889,2.585 -9.188,6.219 -13.72,9.787 l 2.091,5.929 -3.947,-4.485 c -1.214,0.928 -2.449,1.842 -3.725,2.719 -3.701,2.549 -7.7,4.843 -11.64,7.375 l 2.894,7.576 -4.468,-6.548 c -4.284,2.846 -8.441,6.054 -12.002,10.263 l 3.149,5.221 -5.571,-2.056 C 3.135,-7.415 1.372,-4.012 0,0"
             style="fill:#9ac421;fill-opacity:1;fill-rule:evenodd;stroke:none"
             id="path3958" />
        </g>
        <g
           id="g3960"
           transform="translate(360.2471,429.7959)">
          <path
             d="m 0,0 c 7.634,0.227 14.455,-0.088 20.55,-0.89 l 1.174,-2.31 0.293,2.102 c 5.16,-0.759 9.787,-1.88 13.922,-3.327 l 0.642,-2.27 0.543,1.843 c 5.955,-2.227 10.865,-5.152 14.898,-8.666 l -0.108,-2.212 -0.327,-0.925 2.146,1.561 c 2.756,-2.683 5.057,-5.671 6.969,-8.922 l -0.976,-4.16 2.025,2.286 c 3.68,-6.97 5.724,-15.039 6.71,-23.818 C 56.604,-24.98 32.623,-9.274 0,0"
             style="fill:#87b027;fill-opacity:1;fill-rule:evenodd;stroke:none"
             id="path3962" />
        </g>
        <g
           id="g3964"
           transform="translate(255.6426,497.4971)">
          <path
             d="m 0,0 c 8.934,-57.838 1.327,-111.998 -10.736,-165.168 14.54,1.067 29.079,2.134 43.619,3.199 C 32.322,-108.807 25.268,-55.644 10.728,-2.482 7.151,-1.654 3.577,-0.826 0,0"
             style="fill:#c07731;fill-opacity:1;fill-rule:evenodd;stroke:none"
             id="path3966" />
        </g>
        <g
           id="g3968"
           transform="translate(256.2129,493.6377)">
          <path
             d="m 0,0 c 0.592,-4.159 1.101,-8.3 1.527,-12.421 6.166,1.779 10.006,-0.125 11.946,-10.464 1.734,-10.04 2.103,-16.657 2.728,-26.68 0.943,-15.117 4.02,-22.949 2.479,-39.026 -0.587,-6.135 -1.513,-12.101 -2.593,-18.162 -4.19,-20.034 -21.87,-31.006 -22.684,-49.306 -0.087,-1.937 0.124,-3.535 0.553,-4.863 l 38.357,2.812 C 31.751,-104.947 24.698,-51.785 10.158,1.378 L 7.432,2.01 C 4.88,1.506 2.386,0.871 0,0"
             style="fill:#a76321;fill-opacity:1;fill-rule:evenodd;stroke:none"
             id="path3970" />
        </g>
        <g
           id="g3972"
           transform="translate(261.1245,495.5674)">
          <path
             d="m 0,0 c -0.109,9.671 -0.867,18.286 -2.201,25.955 l -2.984,1.365 2.646,0.482 c -1.235,6.489 -2.893,12.285 -4.94,17.442 l -2.907,0.692 2.304,0.784 c -3.129,7.418 -7.088,13.479 -11.747,18.398 l -2.791,-0.253 -1.155,-0.461 1.866,2.797 c -3.539,3.346 -7.442,6.101 -11.653,8.35 l -5.217,-1.453 2.789,2.682 c -9.014,4.292 -19.33,6.456 -30.49,7.244 -0.159,-6.944 1.379,-12.675 3.894,-17.774 l 9.266,2.539 -7.799,-5.267 c 3.526,-6.053 8.348,-11.302 13.101,-16.849 l 7.394,2.956 -5.469,-5.23 c 1.237,-1.485 2.458,-3.002 3.636,-4.569 3.419,-4.551 6.531,-9.491 9.941,-14.344 l 9.434,4.061 -8.052,-5.999 c 3.825,-5.272 8.103,-10.362 13.615,-14.649 l 6.44,4.258 -2.308,-7.156 C -9.544,3.578 -5.147,1.527 0,0"
             style="fill:#9ac421;fill-opacity:1;fill-rule:evenodd;stroke:none"
             id="path3974" />
        </g>
        <g
           id="g3976"
           transform="translate(261.1245,495.5674)">
          <path
             d="m 0,0 c -0.109,9.671 -0.867,18.286 -2.201,25.955 l -2.984,1.365 2.646,0.482 c -1.235,6.489 -2.893,12.285 -4.94,17.442 l -2.907,0.692 2.304,0.784 c -3.129,7.418 -7.088,13.479 -11.747,18.398 l -2.791,-0.253 -1.155,-0.461 1.866,2.797 c -3.539,3.346 -7.442,6.101 -11.653,8.35 l -5.217,-1.453 2.789,2.682 c -9.014,4.292 -19.33,6.456 -30.49,7.244 C -34.569,70.315 -13.441,40.792 0,0"
             style="fill:#87b027;fill-opacity:1;fill-rule:evenodd;stroke:none"
             id="path3978" />
        </g>
        <g
           id="g3980"
           transform="translate(260.7124,496.0371)">
          <path
             d="m 0,0 c 4.869,8.355 9.781,15.474 14.727,21.487 l 3.267,-0.288 -2.062,1.727 c 4.275,5.034 8.578,9.257 12.904,12.731 l 2.87,-0.832 -1.616,1.818 c 6.381,4.909 12.815,8.225 19.294,10.204 l 2.304,-1.598 0.776,-0.972 -0.241,3.355 c 4.729,1.161 9.483,1.633 14.257,1.51 l 3.819,-3.839 -1.103,3.71 c 9.959,-0.715 20,-3.926 30.093,-8.748 C 95.999,34.147 91.834,29.922 87.13,26.728 l -6.803,6.78 4.181,-8.428 C 78.455,21.555 71.67,19.371 64.799,16.891 l -4.971,6.221 2.175,-7.248 C 60.192,15.183 58.383,14.467 56.585,13.686 51.365,11.415 46.219,8.654 40.86,6.117 l -6.202,8.187 4.043,-9.191 C 32.772,2.417 26.54,0.099 19.629,-0.908 L 16.13,5.975 14.605,-1.391 C 10.068,-1.602 5.231,-1.215 0,0"
             style="fill:#9ac421;fill-opacity:1;fill-rule:evenodd;stroke:none"
             id="path3982" />
        </g>
        <g
           id="g3984"
           transform="translate(260.7124,496.0371)">
          <path
             d="m 0,0 c 4.869,8.355 9.781,15.474 14.727,21.487 l 3.267,-0.288 -2.062,1.727 c 4.275,5.034 8.578,9.257 12.904,12.731 l 2.87,-0.832 -1.616,1.818 c 6.381,4.909 12.815,8.225 19.294,10.204 l 2.304,-1.598 0.776,-0.972 -0.241,3.355 c 4.729,1.161 9.483,1.633 14.257,1.51 l 3.819,-3.839 -1.103,3.71 c 9.959,-0.715 20,-3.926 30.093,-8.748 C 64.77,44.091 31.825,28.844 0,0"
             style="fill:#87b027;fill-opacity:1;fill-rule:evenodd;stroke:none"
             id="path3986" />
        </g>
        <g
           id="g3988"
           transform="translate(259.1167,499.5879)">
          <path
             d="m 0,0 c 13.548,3.906 25.893,6.467 37.161,7.824 l 3.155,-3.591 -0.437,3.893 c 9.577,1.005 18.365,1.124 26.425,0.43 l 2.185,-3.768 0.127,3.545 C 80.286,7.083 90.41,4.1 99.232,-0.337 l 0.819,-4.005 -0.16,-1.805 3.122,3.779 c 6.157,-3.538 11.643,-7.827 16.552,-12.761 l 0.16,-7.893 2.574,5.02 c 9.777,-10.782 17.13,-24.274 22.916,-39.522 -9.627,-3.139 -18.273,-3.397 -26.447,-2.028 l -0.347,14 -4.077,-13.097 c -9.932,2.379 -19.284,6.908 -29.025,11.214 l 1.024,11.561 -5.006,-9.832 c -2.593,1.106 -5.221,2.173 -7.905,3.16 -7.788,2.861 -15.991,5.133 -24.198,7.854 l 1.707,14.876 -4.992,-13.76 c -8.966,3.127 -17.868,6.96 -26.168,12.855 l 3.24,10.78 -9.022,-6.229 C 9.004,-11.824 4.294,-6.547 0,0"
             style="fill:#9ac421;fill-opacity:1;fill-rule:evenodd;stroke:none"
             id="path3990" />
        </g>
        <g
           id="g3992"
           transform="translate(259.1167,499.5879)">
          <path
             d="m 0,0 c 13.548,3.906 25.893,6.467 37.161,7.824 l 3.155,-3.591 -0.437,3.893 c 9.577,1.005 18.365,1.124 26.425,0.43 l 2.185,-3.768 0.127,3.545 C 80.286,7.083 90.41,4.1 99.232,-0.337 l 0.819,-4.005 -0.16,-1.805 3.122,3.779 c 6.157,-3.538 11.643,-7.827 16.552,-12.761 l 0.16,-7.893 2.574,5.02 c 9.777,-10.782 17.13,-24.274 22.916,-39.522 C 112.677,-18.735 62.592,-1.637 0,0"
             style="fill:#87b027;fill-opacity:1;fill-rule:evenodd;stroke:none"
             id="path3994" />
        </g>
        <g
           id="g3996"
           transform="translate(270.2188,500.269)">
          <path
             d="m 0,0 c -10.071,2.904 -19.248,4.808 -27.626,5.816 l -2.346,-2.67 0.324,2.896 C -36.767,6.789 -43.3,6.876 -49.291,6.36 L -50.916,3.561 -51.01,6.194 C -59.686,5.264 -67.212,3.049 -73.771,-0.25 l -0.608,-2.978 0.119,-1.343 -2.322,2.81 c -4.578,-2.631 -8.656,-5.819 -12.305,-9.488 l -0.119,-5.865 -1.913,3.731 c -7.268,-8.016 -12.734,-18.047 -17.036,-29.381 7.157,-2.335 13.584,-2.527 19.661,-1.508 l 0.257,10.408 3.032,-9.737 c 7.383,1.769 14.336,5.135 21.577,8.337 l -0.761,8.595 3.721,-7.309 c 1.928,0.822 3.884,1.615 5.878,2.348 5.79,2.129 11.888,3.815 17.988,5.84 l -1.268,11.058 3.711,-10.227 c 6.667,2.323 13.284,5.172 19.453,9.555 l -2.408,8.012 6.707,-4.63 C -6.694,-8.791 -3.191,-4.866 0,0"
             style="fill:#9ac421;fill-opacity:1;fill-rule:evenodd;stroke:none"
             id="path3998" />
        </g>
        <g
           id="g4000"
           transform="translate(270.2188,500.269)">
          <path
             d="m 0,0 c -10.071,2.904 -19.248,4.808 -27.626,5.816 l -2.346,-2.67 0.324,2.896 C -36.767,6.789 -43.3,6.876 -49.291,6.36 L -50.916,3.561 -51.01,6.194 C -59.686,5.264 -67.212,3.049 -73.771,-0.25 l -0.608,-2.978 0.119,-1.343 -2.322,2.81 c -4.578,-2.631 -8.656,-5.819 -12.305,-9.488 l -0.119,-5.865 -1.913,3.731 c -7.268,-8.016 -12.734,-18.047 -17.036,-29.381 C -83.766,-13.928 -46.533,-1.216 0,0"
             style="fill:#87b027;fill-opacity:1;fill-rule:evenodd;stroke:none"
             id="path4002" />
        </g>
        <path
           d="M 661.434,0.446 H 1.436 v 274.998 h 659.998 z"
           style="fill:#6fcdeb;fill-opacity:1;fill-rule:evenodd;stroke:none"
           id="path4004" />
        <g
           id="g4006"
           transform="translate(661.4336,0.4463)">
          <path
             d="m 0,0 h -659.998 v 165.217 c 17.103,-5.664 33.071,-13.636 44.248,-23.87 20.65,-18.908 -3.167,-46.05 74.688,-47.146 39.987,-0.563 49.281,3.86 85.851,15.78 40.053,11.848 50.704,-5.863 89.032,-11.285 28.411,-4.02 49.655,-3.961 73.618,13.6 25.602,16.037 68.149,11.675 96.2,4.996 20.702,-4.929 39.244,-13.717 57.656,-17.949 17.563,-4.034 54.57,0.843 60.718,21.1 4.707,15.506 3.472,47.254 24.338,55.008 11.887,4.419 35.652,-0.432 53.649,-4.708 z"
             style="fill:#5cb9dd;fill-opacity:1;fill-rule:evenodd;stroke:none"
             id="path4008" />
        </g>
        <g
           id="g4010"
           transform="translate(1.436,275.4443)">
          <path
             d="m 0,0 h 659.998 v -73.663 c -7.597,0.815 -15.559,1.717 -23.909,2.702 -42.128,4.402 -72.152,-13.165 -102.19,-40.748 -11.564,-10.62 -11.473,-15.066 -19.318,-25.397 -7.904,-10.41 -19.088,-5.066 -30.981,-3.341 -23.199,3.366 -55.887,3.965 -79.843,5.072 -45.576,2.106 -82.776,-5.766 -126.603,-7.585 -15.509,-0.644 -31.967,-0.506 -46.185,6.472 -20.072,9.679 -42.382,9.24 -63.377,3.382 -24.139,-6.977 -46.182,-13.123 -69.771,0.258 -11.141,6.322 -11,15.266 -14.462,26.409 -3.693,11.888 1.007,14.935 -14.727,23.803 -16.72,9.424 -49.376,17.722 -68.623,23.451 C -0.038,-39.46 0,-19.725 0,0"
             style="fill:#95ddf4;fill-opacity:1;fill-rule:evenodd;stroke:none"
             id="path4012" />
        </g>
        <g
           id="g4014"
           transform="translate(87.6694,247.5137)">
          <path
             d="m 0,0 c -6.754,0.158 -52.855,3.648 -54.718,-2.189 -4.969,-15.565 -1.32,-16.701 12.631,-30.718 18.86,-15.567 35.526,-20.75 52.764,-40.561 8.326,-9.568 22.439,-18.344 35.432,-18.904 14.578,-0.625 54.749,8.718 72.169,11.312 14.564,2.169 28.588,4.583 43.357,4.832 33.22,0.028 65.676,-0.055 98.737,-4.625 19.655,-2.718 34.657,-6.593 53.671,-10.295 13.566,-2.642 21.305,-2.932 34.939,-2.864 46.151,0.005 57.413,-13.96 87.302,29.842 25.945,38.021 44.542,24.887 85.438,31.601 10.736,1.762 20.281,4.073 30.077,8.931 7.024,3.789 17.402,18.475 2.232,20.145 -21.416,2.638 -49.878,7.938 -70.034,15.359 -28.33,10.429 -31.887,12.642 -61.963,13.328 -41.278,0.512 -75.206,0.664 -116.303,-5.505 C 270.233,14.361 234.122,14.023 197.718,8.295 177.876,5.173 123.198,7.646 99.751,7.646 83.312,7.646 48.728,8.577 32.577,5.798 21.824,3.948 9.906,5.997 0,0"
             style="fill:#d2f0fa;fill-opacity:1;fill-rule:evenodd;stroke:none"
             id="path4016" />
        </g>
        <g
           id="g4018"
           transform="translate(406.5371,378.3921)">
          <path
             d="m 0,0 c 21.472,3.501 16.114,-18.094 42.212,-10.054 9.826,3.027 11.142,3.517 18.175,-4.903 6.901,-8.26 4.381,-10.191 15.079,-17.467 1.973,-1.341 3.912,-2.65 5.867,-4.023 5.735,-4.112 5.761,-6.921 7.756,-13.297 0.136,-0.414 0.261,-0.838 0.39,-1.255 7.157,-20.223 25.048,4.728 36.909,-23.299 1.574,-3.723 2.794,-7.654 3.588,-11.695 0.71,-3.616 0.342,-1.982 4.274,-3.939 8.592,-4.278 3.523,-18.509 17.978,-28.789 2.431,-1.728 16.123,-10.169 8.924,-13.879 -6.019,-3.103 -19.843,2.931 -27.746,2.78 -29.663,-0.567 -87.886,-3.344 -113.374,12.644 -9.704,6.678 -32.973,39.196 -38.206,40.598 -11.04,3.406 -20.809,14.465 -27.578,24.85 -3.528,5.415 -6.655,11.29 -5.081,18.296 0.469,2.086 -3.725,0.647 0.879,1.431 17.76,3.02 29.045,-3.281 41.583,17.07 C -5.823,-10.796 -2.978,-1.621 0,0"
             style="fill:#9ac421;fill-opacity:1;fill-rule:evenodd;stroke:none"
             id="path4020" />
        </g>
        <g
           id="g4022"
           transform="translate(469.3555,249.6543)">
          <path
             d="m 0,0 c -16.905,1.721 -32.508,5.113 -42.786,11.561 -9.704,6.679 -32.974,39.197 -38.206,40.599 -1.763,0.545 -3.492,1.284 -5.185,2.185 l -0.181,1.192 c -1.798,10.292 -6.226,21.544 3.681,28.323 10.363,7.089 15.317,4.596 20.81,17.677 5.695,13.561 13.93,5.506 22.532,-0.819 6.293,-4.624 11.014,-9.078 19.132,-9.061 1.676,0.004 3.371,0.091 5.046,0.151 C 10.056,90.781 3.48,82.829 17.118,69.586 32.323,57.466 43.459,69.765 50.96,49.548 57.276,32.523 59.757,29.703 70.923,15.543 77.682,6.971 68.439,2.488 59.805,4.087 42.166,7.352 38.902,17.33 18.193,11.663 L 15.309,10.874 C 9.529,8.873 5.649,3.694 0,0"
             style="fill:#87b027;fill-opacity:1;fill-rule:evenodd;stroke:none"
             id="path4024" />
        </g>
        <g
           id="g4026"
           transform="translate(46.6079,240.3027)">
          <path
             d="m 0,0 c 205.151,94.436 392.193,63.529 574.018,-3.493 -23.214,-5.077 -86.529,-9.81 -100.975,-32.453 -31.12,-48.782 -46.92,-37.255 -105.667,-38.318 -32.86,-0.594 -84.603,21.403 -133.45,20.969 -47.304,-0.419 -64.755,-6.525 -108.19,-11.133 C 77.413,-69.556 74.16,-54.024 40.415,-33.425 36.303,-30.915 -0.55,-4.338 0,0"
             style="fill:#f9cc78;fill-opacity:1;fill-rule:evenodd;stroke:none"
             id="path4028" />
        </g>
        <g
           id="g4030"
           transform="translate(190.4497,287.6738)">
          <path
             d="m 0,0 c 128.212,25.824 250.073,7.693 369.12,-29.914 -0.827,-0.357 -1.842,-0.495 -3.168,-0.354 -17.492,1.869 -22.133,-1.881 -37.931,-3.718 -2.894,-0.225 -5.013,-0.171 -7.907,0.037 -7.69,0.552 -20.356,3.726 -24.09,-4.553 -3.776,-8.373 -8.3,-14.608 -18.269,-12.262 -9.404,2.213 -14.751,3.393 -24.619,4.157 -5.738,0.365 -11.362,0.398 -17.02,-0.795 -19.992,-4.212 -21.591,-17.057 -33.683,-23.46 -10.319,-5.465 -31.686,0.381 -42.258,3.888 -7.885,2.616 -15.72,7.762 -23.148,9.406 -23.418,5.186 -19.61,-8.985 -36.495,-10.878 -26.663,-2.189 -47.008,6.357 -69.134,20.101 -18.409,11.52 -44.852,-13.666 -53.687,19.441 -0.796,2.982 0.874,-0.001 4.038,2.401 23.282,17.694 12.62,2.063 17.548,23.541 C -0.474,-1.964 -0.239,-0.979 0,0"
             style="fill:#e3b761;fill-opacity:1;fill-rule:evenodd;stroke:none"
             id="path4032" />
        </g>
        <g
           id="g4034"
           transform="translate(113.5483,357.2407)">
          <path
             d="M 0,0 C 16.572,7.806 0.238,52.981 41.763,33.014 67.68,20.551 68.017,47.556 89.518,32.252 100.087,24.729 100.575,12.27 113.331,12.27 c 20.268,0 22.047,4.621 29.345,-16.163 3.092,-8.807 7.824,-42.823 7.824,-53.659 -0.037,-10.712 -0.526,-33.39 -16.507,-31.471 -10.602,1.273 -13.687,2.494 -23.401,-4.563 -10.265,-7.457 -10.898,-9.411 -16.945,0.942 -3.546,6.069 -7.534,7.687 -14.466,7.516 -10.251,-0.532 -12.348,-4.146 -18.373,5.066 -2.046,3.129 -2.53,4.096 -5.907,5.943 -5.3,2.283 -16.52,-2.019 -22.373,-3.485 C 20.272,-80.676 18.577,-89.755 9.01,-95.192 6.379,-96.688 4.9,-96.85 1.947,-96.826 c -6.696,0.496 -8.313,1.204 -15.063,-0.846 5.932,0.737 -7.714,-1.902 -8.775,-0.769 -0.151,0.162 -0.726,5.096 -1.697,7.314 -3.921,8.944 -15.196,26.652 -6.52,35.76 3.237,3.401 5.107,4.275 8.163,8.5 4.513,7.118 5.864,14.431 6.315,22.693 C -15.154,-10.793 -12.407,-6.12 0,0"
             style="fill:#9ac421;fill-opacity:1;fill-rule:evenodd;stroke:none"
             id="path4036" />
        </g>
        <g
           id="g4038"
           transform="translate(257.6479,348.0918)">
          <path
             d="m 0,0 c 2.642,-11.607 5.71,-33.992 6.299,-45.121 -12.179,-19.984 -60.63,-12.64 -93.161,-21.323 -0.606,0.465 -1.346,0.932 -2.336,1.474 -5.3,2.282 -16.52,-2.019 -22.373,-3.485 -12.257,-3.072 -13.952,-12.151 -23.518,-17.588 -2.632,-1.496 -4.111,-1.658 -7.064,-1.634 -6.695,0.496 -8.312,1.203 -15.063,-0.846 2.694,0.334 1.351,-0.027 -1.017,-0.416 2.797,7.799 4.748,16.56 4.748,23.174 0,25.042 3.571,13.956 14.74,32.939 6.038,10.261 11.975,20.188 14.641,31.966 3.592,15.861 28.369,1.562 42.811,14.776 6.276,5.743 28.26,-5.167 42.012,-5.167 C -19.022,8.749 -7.177,8.964 0,0"
             style="fill:#87b027;fill-opacity:1;fill-rule:evenodd;stroke:none"
             id="path4040" />
        </g>
        <g
           id="g4042"
           transform="translate(135.3945,307.4756)">
          <path
             d="m 0,0 c 4.592,9.529 20.686,27.697 32.047,27.532 14.092,-0.205 13.427,-2.867 23.859,8.051 13.804,14.447 23.227,-6.119 43.059,8.646 23.597,17.284 19.26,1.324 46.059,12.575 21.578,9.062 28.148,10.364 48.193,-5.944 14.425,-11.734 16.618,-16.854 35.846,-7.033 27.196,8.597 19.319,-15.823 42.586,-15.035 28.779,0.974 18.239,9.857 42.504,-12.041 17.158,-15.479 19.003,5.663 34.749,-9.779 2.221,-2.177 22.194,-32.275 23.184,-35.394 5.24,-16.52 -2.345,-20.955 -17.454,-17.004 -33.936,8.877 -11.931,-32.062 -48.975,-17.259 -20.523,8.202 -22.376,9.072 -42.976,-3.989 -11.353,-7.195 -16.621,-11.713 -30.456,-12.661 -14.325,0.571 -30.402,9.62 -43.268,15.722 -13.714,6.259 -20.486,5.479 -32.966,-2.526 -14.24,-10.743 -27.803,-5.978 -44.99,-2.346 -19.471,4.115 -15.352,14.327 -45.949,6.377 -20.094,-5.224 -21.132,-7.291 -39.129,6.848 -25.299,19.875 -28.638,4.874 -42.762,13.49 -6.482,3.954 -5.427,8.909 -4.672,15.31 4.549,20.358 18.768,15.955 21.218,25.338 z"
             style="fill:#9ac421;fill-opacity:1;fill-rule:evenodd;stroke:none"
             id="path4044" />
        </g>
        <g
           id="g4046"
           transform="translate(507.7461,278.1875)">
          <path
             d="m 0,0 c 4.701,-15.808 -2.878,-20.02 -17.72,-16.138 -33.935,8.877 -11.93,-32.062 -48.974,-17.258 -20.524,8.201 -22.376,9.071 -42.977,-3.99 -11.352,-7.195 -16.621,-11.713 -30.456,-12.661 -14.324,0.571 -30.401,9.62 -43.268,15.722 -13.714,6.259 -20.486,5.479 -32.965,-2.526 -14.241,-10.743 -27.804,-5.978 -44.991,-2.346 -19.47,4.115 -15.352,14.327 -45.948,6.377 -20.095,-5.224 -21.133,-7.291 -39.129,6.848 -23.428,18.406 -28.026,6.907 -39.794,11.945 5.264,1.264 12.686,1.378 15.012,1.76 9.657,1.586 17.145,6.094 25.211,11.217 6.21,3.946 11.59,-1.697 18.602,-3.896 11.474,-3.599 22.795,-0.478 33.573,3.77 18.412,7.558 20.355,-26.141 54.37,7.127 7.023,6.759 14.523,14.667 24.228,17.143 15.932,4.074 14.311,4.059 29.945,2.026 3.109,-0.404 11.911,-6.609 17.16,-8.431 13.835,-4.802 25.263,-2.096 38.115,3.752 7.019,3.477 25.118,-12.12 35.997,-12.12 16.888,0 22.441,12.001 37.169,3.208 9.236,-5.284 34.716,-17.348 44.536,-16.006 3.5,0.48 7.768,2.189 12.304,4.477"
             style="fill:#87b027;fill-opacity:1;fill-rule:evenodd;stroke:none"
             id="path4048" />
        </g>
        <g
           id="g4050"
           transform="translate(135.3945,307.4756)">
          <path
             d="m 0,0 c 4.592,9.529 20.686,27.697 32.047,27.532 14.092,-0.205 13.427,-2.867 23.859,8.051 13.804,14.447 23.227,-6.119 43.059,8.646 23.597,17.284 19.26,1.324 46.059,12.575 21.578,9.062 28.148,10.364 48.193,-5.944 14.425,-11.734 16.618,-16.854 35.846,-7.033 27.196,8.597 19.319,-15.823 42.586,-15.035 28.779,0.974 18.239,9.857 42.504,-12.041 17.158,-15.479 19.003,5.663 34.749,-9.779 1.266,-1.24 8.29,-11.539 14.287,-20.753 -1.621,1.71 -2.886,3.108 -3.539,3.767 C 339.338,9.87 338.216,-10.2 315.683,3.043 309.667,6.668 296.812,16.804 290.094,15.321 282.95,13.744 280.108,6.632 269.266,10.272 251.672,16.55 236.785,33.217 217.374,23.84 204.9,17.123 206.348,9.299 190.514,20.085 175.476,30.326 172.763,35.955 154.256,28.988 144.529,25.326 144.13,27.223 134.774,27.168 116.714,23.405 123.859,16.545 100.299,17.803 80.624,18.852 79.142,10.345 66.833,9.341 58.252,8.642 48.688,14.958 37.058,10.867 35.366,10.272 34.493,9.742 32.983,8.832 17.285,-3.587 28.362,-20.554 3.926,-19.612 c -14.307,0.551 -16.393,0.396 -25.78,-9.714 0.102,0.921 0.226,1.877 0.343,2.866 4.549,20.358 18.768,15.955 21.218,25.338 z"
             style="fill:#adda1a;fill-opacity:1;fill-rule:evenodd;stroke:none"
             id="path4052" />
        </g>
      </g>
    </g>
  </g>
</svg>
